<svg width="24" height="24" viewBox="0 0 24 24" fill="none" xmlns="http://www.w3.org/2000/svg">
<path fill-rule="evenodd" clip-rule="evenodd" d="M19.908 3.218C19.48 3 18.92 3 17.8 3L15.2 3C14.08 3 13.52 3 13.092 3.218C12.7157 3.40974 12.4097 3.71569 12.218 4.092C12 4.52 12 5.08 12 6.2L12 6.8C12 7.92 12 8.48 12.218 8.908C12.4097 9.28431 12.7157 9.59026 13.092 9.782C13.52 10 14.08 10 15.2 10L17.8 10C18.92 10 19.48 10 19.908 9.782C20.2843 9.59026 20.5903 9.28431 20.782 8.908C21 8.48 21 7.92 21 6.8L21 6.2C21 5.08 21 4.52 20.782 4.092C20.5903 3.71569 20.2843 3.40974 19.908 3.218ZM6.39 3.038C6.197 3 5.965 3 5.5 3C5.035 3 4.803 3 4.61 3.038C4.22185 3.11511 3.86529 3.30563 3.58546 3.58546C3.30563 3.86529 3.11511 4.22185 3.038 4.61C3 4.803 3 5.035 3 5.5L3 7.5C3 7.965 3 8.197 3.038 8.39C3.11511 8.77816 3.30563 9.13471 3.58546 9.41454C3.86529 9.69437 4.22185 9.8849 4.61 9.962C4.803 10 5.035 10 5.5 10C5.965 10 6.197 10 6.39 9.962C6.77816 9.8849 7.13471 9.69437 7.41454 9.41454C7.69437 9.13471 7.8849 8.77816 7.962 8.39C8 8.197 8 7.965 8 7.5L8 5.5C8 5.035 8 4.803 7.962 4.61C7.8849 4.22185 7.69437 3.86529 7.41454 3.58546C7.13471 3.30563 6.77816 3.11511 6.39 3.038ZM4.092 20.782C4.51999 21 5.07999 21 6.19997 21L8.8568 21L17.8 21C18.92 21 19.48 21 19.908 20.782C20.2843 20.5903 20.5903 20.2843 20.782 19.908C21 19.48 21 18.92 21 17.8L21 17.2C21 16.08 21 15.52 20.782 15.092C20.5903 14.7157 20.2843 14.4097 19.908 14.218C19.48 14 18.92 14 17.8 14L8.8568 14L6.2 14C5.08 14 4.52 14 4.092 14.218C3.71569 14.4097 3.40974 14.7157 3.218 15.092C3 15.52 3 16.08 3 17.2L3 17.8C3 18.92 3 19.48 3.218 19.908C3.40974 20.2843 3.71569 20.5903 4.092 20.782Z" stroke="currentColor" stroke-width="2" stroke-linecap="round" stroke-linejoin="round"/>
</svg>
