<svg xmlns="http://www.w3.org/2000/svg" fill="currentColor" viewBox="0 0 654.26 673.04"><path d="M545.81 177.89c-9.48-.51-19.08.93-28.58 2.75l-30.52 5.84c-7.75-25.5-34.15-42.33-61.04-36.94l-39.23 7.86-2.73.38-175.83 35.15c-23.19 4.64-40.88 27.03-41.05 50.72l-1.6 226.85c-.19 26.22 20.51 50.34 46.05 53.15l-.09 35.94c-.02 8.2 1.14 15.9 2.54 24.02-12.72 0-25.49-3.09-37.48-8.05-34.39-14.21-59.54-44.37-67.81-80.67C44.27 490.86-.46 440.53 0 375.48l.5-69.85.35-42.4.6-103.57C1.78 103.3 38.3 55.74 92.72 44.95L311.66 1.57c59.86-10.04 115.63 29.2 128.93 87.55 50.98 1.88 94.97 39.91 105.22 88.77Zm-486.1 203c-.15 26.99 19.55 50.13 46.14 54l1.28-189.23c.22-33.01 14.34-64.36 39.17-86.02 14.23-12.41 31.47-21.54 50.19-25.26l184.82-36.74c-7.88-25.68-34.37-42.4-60.85-37.16L183.83 87.49l-2.71.47-78.62 15.9c-22.95 4.64-39.07 25.27-41.15 48.28-.53 5.82-.39 10.89-.42 16.76l-.72 121.18-.5 90.8Z" fill-opacity="0.5"/><path d="M545.81 177.89c61.01 3.27 108.68 54.23 108.45 111.8l-.34 82.14-.84 141.76c-.18 30.17-10.57 59.1-31.37 81.08-15.83 16.73-36.48 28.67-59.32 33.19l-218.47 43.25c-24.8 4.91-50.63.28-72.58-11.54-29.67-15.97-49.88-43.67-57.6-75.96-1.41-8.12-2.57-15.83-2.54-24.02l.09-35.94 1.25-186.49c.18-27.49 8.79-53.84 26.17-75.05 17.06-20.81 40.69-34.44 67.12-39.69l180.89-35.94 30.52-5.84c9.49-1.82 19.1-3.25 28.58-2.75Zm5.36 391.5c14.98-2.98 27.29-12.96 34.7-25.59 5.14-8.76 7.5-18.05 7.57-28.3l1.17-169.05.37-52.83c.11-16.08-5.93-31.13-17.84-41.98-11.94-10.87-28.63-16.59-44.85-13.36l-218.89 43.6c-23.18 4.62-40.86 27.17-41.03 50.73l-1.6 227.42c-.15 21.04 13.22 39.98 31.73 48.58 10.44 4.85 21.46 5.93 32.66 3.7l216.03-42.92Z"/></svg>