<svg id="Layer_2" xmlns="http://www.w3.org/2000/svg" fill="currentColor" viewBox="0 0 610.21 671.45"><path d="M546.27 662.41c-19.43 8.39-46.76 9.04-68.15 9.04H132.35c-21.48 0-48.8-.61-68.29-8.97-24.29-10.42-43.77-29.67-54.59-53.81-4.12-9.2-6.24-18.61-7.47-28.55-1.42-11.29-2-22.26-2-33.76V369.31c0-19.45 1.4-43.89 9.19-61.67 9.85-22.48 27.22-40.6 49.05-51.78 20.34-10.43 46.23-11.51 69.1-11.51h355.77c19.85 0 44.74 1.05 62.82 8.78 25.25 10.8 45.44 31.17 55.89 56.61 7.51 18.28 8.38 44.24 8.38 64.2v167.3c0 20.63-.83 47-8.81 65.79-10.55 24.82-30.37 44.71-55.13 55.4Zm-24.33-56.01c10.3-4.32 18.57-12.53 23.05-22.77s4.3-38.87 4.3-50.89V382.9c0-11.43-.06-40.31-3.88-49.8-4.43-11-13.37-20.06-24.55-24.19s-38.62-3.6-51.23-3.6H138.85c-12.3 0-39.57-.29-49.96 3.75-11.13 4.34-20.4 13.61-24.39 24.9-3.76 10.65-3.52 36.62-3.52 48.73v150.65c0 12.41-.28 38.22 3.77 49.07s12.64 19.19 23 23.78c9.84 4.36 38.68 4.28 50.59 4.28h333.28c11.86 0 40.49.05 50.31-4.07Z" /><path fill-opacity=".5" d="m518.68 183.26-427.61-.03c-15.3 0-27.75-11.67-29.89-26.6-2.41-16.77 10.87-34.34 28.66-34.35l428.29-.2c17.05 0 30.77 13.18 31.1 30.06.32 16.46-13.03 31.12-30.55 31.12ZM457.71 61.18l-306.63-.08c-14.69 0-26.58-12.05-28.76-25.87C119.57 17.8 132.6.47 150.51.34L199.82 0l260.46.3c16.5.02 28.4 16.37 27.9 31.16-.55 16.19-13.59 29.72-30.46 29.72Z"/></svg>