<svg xmlns="http://www.w3.org/2000/svg" fill="currentColor" viewBox="0 0 19.97 19.97"><path d="M9.84 0h.57c3.45.26 5.95 3.23 6.13 6.59 1.19.68 2.1 1.95 2.34 3.31.21 1.2.01 2.83-.09 4.06-.16 1.88-.24 3.42-1.71 4.77-1.13 1.04-2.14 1.17-3.63 1.21-2.27.06-4.55 0-6.82.02-1.66-.03-2.86-.24-4.03-1.51-1.07-1.16-1.24-2.36-1.38-3.88-.08-.84-.15-1.71-.19-2.55-.05-.93-.09-1.89.22-2.79a4.94 4.94 0 0 1 2.17-2.65C3.62 3.12 6.26.1 9.84 0Zm4.63 6.03c-.15-.83-.49-1.62-1.01-2.28-1.29-1.66-3.5-2.26-5.41-1.28-1.36.7-2.28 2.06-2.55 3.56h.38c2.69-.11 5.41 0 8.1-.02l.49.03ZM6.26 8c-1.04.03-1.79.05-2.52.88s-.76 1.62-.72 2.69c.03.92.11 1.88.19 2.8.1 1.14.15 2.12 1.06 2.93.63.56 1.24.64 2.06.67h7.32c.84-.03 1.44-.11 2.07-.68.89-.8.94-1.81 1.04-2.93.08-.92.16-1.88.19-2.8s.05-1.55-.46-2.33c-.56-.85-1.37-1.22-2.38-1.22-2.61.02-5.24-.08-7.85 0Z"/><path d="M9.76 9.99c2.12-.2 2.93 2.59 1.22 3.71v1.38c-.15 1.18-1.82 1.19-1.99.02v-1.39c-.9-.59-1.2-1.79-.67-2.73.29-.51.84-.92 1.43-.97Z"/></svg>