<svg xmlns="http://www.w3.org/2000/svg" width="24" height="24" fill="none" viewBox="0 0 24 24">
  <path stroke="currentcolor" stroke-linecap="round" stroke-linejoin="round" stroke-width="2" d="M19.908 10.792A8 8 0 0 1 5.93 17.214"/>
  <path stroke="currentcolor" stroke-linecap="round" stroke-linejoin="round" stroke-width="2" d="M6.5 21.526A15 15 0 0 1 5.45 17.8a.48.48 0 0 1 .298-.515l.18-.07c1.15-.44 2.348-.738 3.57-.885"/>
  <g opacity=".65">
    <path stroke="currentcolor" stroke-linecap="round" stroke-linejoin="round" stroke-width="2" d="M18.07 6.785a8 8 0 0 0-13.912 6.797"/>
    <path stroke="currentcolor" stroke-linecap="round" stroke-linejoin="round" stroke-width="2" d="M17.5 2.474c.51 1.191.862 2.444 1.049 3.726a.479.479 0 0 1-.298.515l-.181.07a15 15 0 0 1-3.57.885"/>
  </g>
</svg>
