<svg xmlns="http://www.w3.org/2000/svg" fill="currentColor" viewBox="0 0 595.84 745.4"><path d="M289.66 745.29c-74.3-2.03-144.83-31.53-198.14-82.78C35.1 608.27 0 533.54 0 454.77V290.41c0-76.56 33.33-149.34 87.04-203.18C139.8 34.35 210.7 3.21 285.47.24c48.97-1.95 97.52 7.86 141.62 29.17 60.73 29.34 109.96 78.4 139.29 139.22 19 39.39 29.46 82.56 29.46 126.5v155.33c-.02 78.49-32.55 153.13-87.83 208.18-57.7 57.46-136.42 88.89-218.36 86.65ZM521.34 455.9V289.31c-2.54-59.58-28.23-115.08-71.74-155.36-87.2-80.73-222.58-79.01-307.82 3.95-43.49 42.33-67.7 100.4-67.7 161.29v146.83c0 59.29 22.82 116.01 64.34 158.1 38.4 38.93 89.56 62.63 144.25 66.23 126.07 8.3 233.28-88.26 238.67-214.45Z"/><path d="M402.7 487.25c-20.34 27.72-44.32 52.31-70.73 73.69-21.08 17.06-50.39 15.48-70.75-1.68-25.15-21.2-48.13-44.58-67.79-71.03-12.33-16.59-8.96-39.81 7.3-52.11 16.18-12.23 39.65-9.37 52.13 7.17 13.39 17.75 28.22 34.04 44.91 48.96 16.53-14.84 31.29-30.79 44.34-48.33 12.31-16.54 35.12-20.24 51.78-8.43 16.27 11.53 21.16 34.94 8.81 51.77ZM297.78 253.1c-16.28 14.68-31.18 30.53-44.12 48.08-12.33 16.72-35.31 20.63-52.15 8.62s-20.85-35.4-8.42-52.14c20.32-27.35 44.01-51.92 70.55-73.29 19.97-16.09 48.58-15.96 68.48.16 26.47 21.45 50.22 45.93 70.45 73.36 12.2 16.54 7.98 39.64-8.03 51.54-16.16 12.01-39.35 9.1-51.75-7.23-13.39-17.65-27.95-33.81-45.01-49.09Z"/></svg>