<svg xmlns="http://www.w3.org/2000/svg" fill="currentColor" viewBox="0 0 16.06 19.97"><path d="M7.66 0c4.35-.2 8.07 3.13 8.36 7.47.02 1.45.07 2.98.02 4.44C15.71 22.47.75 22.72.02 12.26c.04-1.5-.06-3.03 0-4.53A8.036 8.036 0 0 1 7.66 0Zm.38 1.99c-3.38 0-5.98 2.68-6.03 6.03-.02 1.32-.02 2.69 0 4 .33 7.79 11.35 8.01 12.03.27-.06-1.52.07-3.09 0-4.6-.15-3.18-2.82-5.7-6-5.71Z"/><path d="M5.88 11.52c.7-.08.88.37 1.26.8.27.32.56.62.88.9.03 0 .04-.02.05-.03.17-.13.45-.44.6-.6.21-.23.38-.49.58-.72.84-.94 2.31.13 1.55 1.26-.4.59-1.13 1.33-1.68 1.78-1.17.96-1.92.34-2.82-.55-.31-.31-1.02-1.05-1.19-1.43-.28-.61.1-1.33.77-1.41ZM7.98 4.63c.67-.02 1.19.48 1.64.91.39.37.94.95 1.22 1.39.68 1.05-.71 2.16-1.59 1.2-.37-.48-.76-.96-1.24-1.33l-.05.02c-.2.21-.42.4-.61.62-.48.53-.75 1.24-1.63 1.01-.52-.14-.8-.71-.67-1.22.12-.44 1.13-1.48 1.5-1.82.41-.38.82-.77 1.42-.79Z"/></svg>