<svg xmlns="http://www.w3.org/2000/svg" fill="currentColor" viewBox="0 0 19.97 19.97"><path d="M15.43 19.97c-.5 0-.91-.41-.91-.91s.41-.91.91-.91c.74 0 1.15 0 1.38-.06.62-.17 1.12-.66 1.28-1.28.06-.23.06-.64.06-1.38 0-.5.41-.91.91-.91s.91.41.91.91c0 .92 0 1.39-.12 1.85a3.645 3.645 0 0 1-2.57 2.57c-.46.12-.93.12-1.85.12Zm-3.63 0H8.17c-.5 0-.91-.41-.91-.91s.41-.91.91-.91h3.63c.5 0 .91.41.91.91s-.41.91-.91.91Zm-7.01 0c-.92 0-1.39 0-1.85-.12a3.645 3.645 0 0 1-2.57-2.57c-.12-.46-.12-.93-.12-1.85 0-.5.41-.91.91-.91s.91.41.91.91c0 .74 0 1.15.06 1.38.17.62.66 1.12 1.28 1.28.23.06.64.06 1.38.06.5 0 .91.41.91.91s-.41.91-.91.91Zm5.38-4.54h-.36c-1.43 0-2.18-.02-2.57-.12a3.645 3.645 0 0 1-2.57-2.57c-.11-.39-.12-1.14-.12-2.57v-.36c0-1.62 0-2.51.4-3.28.35-.69.9-1.24 1.59-1.59.78-.4 1.67-.4 3.28-.4h.36c1.62 0 2.51 0 3.28.4.69.35 1.24.9 1.59 1.59.4.78.4 1.67.4 3.28v.36c0 1.62 0 2.51-.4 3.28-.35.69-.9 1.24-1.59 1.59-.78.4-1.67.4-3.28.4Zm-.37-1.81h.36c1.33 0 2.07 0 2.46-.2.34-.18.62-.45.79-.79.2-.39.2-1.12.2-2.46v-.36c0-1.33 0-2.07-.2-2.46-.18-.34-.45-.62-.79-.79-.39-.2-1.12-.2-2.46-.2H9.8c-1.33 0-2.07 0-2.46.2-.34.18-.62.45-.79.79-.2.39-.2 1.12-.2 2.46v.36c0 .55 0 1.82.06 2.11.17.62.66 1.11 1.28 1.28.28.06 1.56.06 2.11.06Zm-3.38-1.34Zm12.64.43c-.5 0-.91-.41-.91-.91V8.17c0-.5.41-.91.91-.91s.91.41.91.91v3.63c0 .5-.41.91-.91.91Zm-18.15 0c-.5 0-.91-.41-.91-.91V8.17c0-.5.41-.91.91-.91s.91.41.91.91v3.63c0 .5-.41.91-.91.91Zm18.15-7.26c-.5 0-.91-.41-.91-.91 0-.74 0-1.15-.06-1.38-.17-.62-.66-1.12-1.28-1.28-.23-.06-.64-.06-1.38-.06-.5 0-.91-.41-.91-.91s.41-.91.91-.91c.92 0 1.39 0 1.85.12 1.25.33 2.23 1.32 2.57 2.57.12.46.12.92.12 1.85 0 .5-.41.91-.91.91Zm-18.15 0c-.5 0-.91-.41-.91-.91 0-.92 0-1.39.12-1.85A3.663 3.663 0 0 1 2.69.12C3.15 0 3.61 0 4.54 0c.5 0 .91.41.91.91s-.41.91-.91.91c-.74 0-1.15 0-1.38.06-.62.17-1.12.66-1.28 1.28-.06.23-.06.64-.06 1.38 0 .5-.41.91-.91.91ZM11.8 1.82H8.17c-.5 0-.91-.41-.91-.91S7.67 0 8.17 0h3.63c.5 0 .91.41.91.91s-.41.91-.91.91Z"/></svg>