<svg xmlns="http://www.w3.org/2000/svg" viewBox="0 0 606.71 633.35"><path d="M88.54 105.48c1.06-11.43 2.96-22.83 5.15-34.09 2.06-10.56 7.13-25.2 7.84-35.16 2.77-39.28-54.74-52.44-67.35-9.85-7.72 26.09-12.68 59.19-15.14 86.36-1.57 17.34-4.78 52.05.27 67.73 9.65 29.96 40.2 34.68 67.14 39.36 32.98 5.74 72.96 9.88 106.36 8.18 49.51-2.53 44.6-67.55 1.93-68.47-19.79-.43-38.94.68-58.95-1.55-.84-.09-2.04-.3-2.75-.75 69.75-69.27 177.2-88.09 266.84-46.84 147.98 68.1 186.02 263.07 72.68 381.35C348.9 620.8 130.51 571.92 74.4 402.88c-3.89-11.73-6.34-31.54-13.37-40.63-14.07-18.2-41.58-17.71-54.9 1.08-10.12 14.28-5.58 28.32-1.45 43.77 30.75 115.07 128.53 203.3 246.25 222.25 205.96 33.15 384.1-143.94 352.02-350.02C578.43 121.76 435.59 9.05 276.29 21.49c-70.03 5.47-137.18 35.78-187.75 84Zm248.67 327.33c9.65 8.67 16.35 18.57 30.56 19.69 29.31 2.32 47.65-28.68 31.68-53.18l-61.81-62.69-.08-121.92c-2.54-42.63-59.28-46.38-67.87-5.83.35 42.14-2.68 86.33-.67 128.38.75 15.61 5.97 30.94 16.04 42.96 15.3 18.25 36.61 34.2 52.16 52.59Z"/><path fill="currentColor" fill-opacity=".65" d="M88.54 105.48c50.57-48.22 117.72-78.53 187.75-84 159.3-12.43 302.14 100.28 326.66 257.83 32.08 206.08-146.06 383.17-352.02 350.02C133.21 610.38 35.42 522.15 4.68 407.08c-4.13-15.44-8.67-29.48 1.45-43.77 13.31-18.79 40.83-19.28 54.9-1.08 7.03 9.1 9.47 28.9 13.37 40.63 56.11 169.03 274.51 217.92 398.16 88.87 113.34-118.28 75.29-313.25-72.68-381.35-89.63-41.25-197.09-22.43-266.84 46.84.71.45 1.91.65 2.75.75 20.01 2.23 39.16 1.12 58.95 1.55 42.67.92 47.58 65.94-1.93 68.47-33.41 1.7-73.38-2.44-106.36-8.18-26.94-4.69-57.49-9.4-67.14-39.36-5.05-15.67-1.84-50.39-.27-67.73 2.46-27.17 7.42-60.27 15.14-86.36 12.61-42.59 70.12-29.43 67.35 9.85-.7 9.97-5.78 24.61-7.84 35.16-2.2 11.26-4.1 22.66-5.15 34.09Z"/><path fill="currentColor" d="M337.21 432.81c-15.55-18.39-36.86-34.34-52.16-52.59-10.07-12.02-15.29-27.35-16.04-42.96-2.01-42.05 1.02-86.23.67-128.38 8.59-40.55 65.33-36.8 67.87 5.83l.08 121.92 61.81 62.69c15.96 24.5-2.37 55.51-31.68 53.18-14.21-1.13-20.91-11.03-30.56-19.69Z"/></svg>