<svg xmlns="http://www.w3.org/2000/svg" fill="none" viewBox="0 0 33 33"><path fill="#fff" stroke="#000" stroke-linecap="round" stroke-linejoin="round" stroke-width="2" d="M18.396 2.776h-2.963c-4.149 0-6.223 0-7.808.808A7.407 7.407 0 0 0 4.388 6.82c-.807 1.585-.807 3.659-.807 7.807v2.963c0 4.148 0 6.222.807 7.807a7.408 7.408 0 0 0 3.237 3.238c1.585.807 3.66.807 7.808.807h2.963c4.148 0 6.222 0 7.807-.808a7.408 7.408 0 0 0 3.237-3.237c.807-1.585.807-3.659.807-7.807v-2.963c0-4.148 0-6.222-.807-7.807a7.407 7.407 0 0 0-3.237-3.237c-1.585-.808-3.66-.808-7.807-.808Z"/><path fill="color(display-p3 .8335 .8335 .8335)" d="M6.95 25a3 3 0 0 1 3-3h13.928a3 3 0 0 1 3 3v3.437H6.951V25Z"/><path stroke="#000" stroke-linecap="round" stroke-linejoin="round" stroke-width="2" d="M18.396 2.776h-2.963c-4.149 0-6.223 0-7.808.808A7.407 7.407 0 0 0 4.388 6.82c-.807 1.585-.807 3.659-.807 7.807v2.963c0 4.148 0 6.222.807 7.807a7.408 7.408 0 0 0 3.237 3.238c1.585.807 3.66.807 7.808.807h2.963c4.148 0 6.222 0 7.807-.808a7.408 7.408 0 0 0 3.237-3.237c.807-1.585.807-3.659.807-7.807v-2.963c0-4.148 0-6.222-.807-7.807a7.407 7.407 0 0 0-3.237-3.237c-1.585-.808-3.66-.808-7.807-.808Z"/><rect width="20.64" height="14.02" x="6.565" y="5.75" fill="color(display-p3 .502 .502 .502)" rx="5"/></svg>